<svg width="496" height="496" xmlns="http://www.w3.org/2000/svg">
 <g>
  <title>Layer 1</title>
  <path d="m496.004,152c0,-13.232 -10.768,-24 -24,-24c-2.752,0 -5.36,0.56 -7.824,1.416l-35.848,-44.808c2.288,-3.672 3.672,-7.968 3.672,-12.608c0,-13.232 -10.768,-24 -24,-24c-6.728,0 -12.792,2.8 -17.152,7.264l-63.064,-29.104c0.064,-0.72 0.216,-1.416 0.216,-2.16c0,-13.232 -10.768,-24 -24,-24c-10.416,0 -19.216,6.712 -22.528,16l-90.944,0c-3.312,-9.288 -12.112,-16 -22.528,-16c-13.232,0 -24,10.768 -24,24c0,0.992 0.176,1.944 0.296,2.912l-39.68,19.84c-4.32,-4.16 -10.16,-6.752 -16.616,-6.752c-13.232,0 -24,10.768 -24,24c0,4.64 1.384,8.936 3.672,12.608l-35.848,44.808c-2.464,-0.856 -5.072,-1.416 -7.824,-1.416c-13.232,0 -24,10.768 -24,24c0,10.416 6.712,19.216 16,22.528l0,50.952c-9.288,3.304 -16,12.104 -16,22.52c0,13.232 10.768,24 24,24c8.888,0 16.568,-4.912 20.72,-12.104l43.672,7.936c1.848,11.408 11.688,20.168 23.608,20.168c0.32,0 0.624,-0.08 0.944,-0.096l15.264,38.168c-4.992,4.4 -8.208,10.768 -8.208,17.928c0,13.232 10.768,24 24,24c8.048,0 15.144,-4.016 19.496,-10.104l68.656,19.616c0.616,9.744 7.016,17.864 15.848,21.016l0,58.952c-9.288,3.312 -16,12.112 -16,22.528c0,13.232 10.768,24 24,24s24,-10.768 24,-24c0,-10.416 -6.712,-19.216 -16,-22.528l0,-58.952c9.288,-3.312 16,-12.112 16,-22.528c0,-7.664 -3.68,-14.424 -9.288,-18.824l9.552,-28.664l71.784,23.928c0.192,10.216 6.8,18.816 15.952,22.08l0,82.952c-9.288,3.312 -16,12.112 -16,22.528c0,13.232 10.768,24 24,24s24,-10.768 24,-24c0,-10.416 -6.712,-19.216 -16,-22.528l0,-82.944c9.288,-3.312 16,-12.112 16,-22.528c0,-2.92 -0.6,-5.688 -1.56,-8.28l61.384,-51.152c3.576,2.128 7.712,3.432 12.176,3.432c13.232,0 24,-10.768 24,-24c0,-10.416 -6.712,-19.216 -16,-22.528l0,-66.952c9.288,-3.304 16,-12.104 16,-22.52zm-88,-88c4.408,0 8,3.584 8,8s-3.592,8 -8,8c-4.408,0 -8,-3.584 -8,-8s3.592,-8 8,-8zm-11.376,29c3.4,1.856 7.24,3 11.376,3c2.752,0 5.352,-0.56 7.816,-1.416l35.848,44.816c-2.28,3.672 -3.664,7.96 -3.664,12.6c0,1.288 0.184,2.528 0.384,3.768l-56.672,30.912l-41.272,-34.392c0.96,-2.6 1.56,-5.368 1.56,-8.288a23.84,23.84 0 0 0 -1.84,-9.176l46.464,-41.824zm-100.624,131c-3.696,0 -7.152,0.904 -10.28,2.408l-33.896,-33.896l59.84,-31.032c4.296,4.016 10.008,6.52 16.336,6.52c4.464,0 8.592,-1.304 12.176,-3.432l36.424,30.352l-64.664,35.272c-4.248,-3.808 -9.792,-6.192 -15.936,-6.192zm8,24c0,4.416 -3.592,8 -8,8c-4.408,0 -8,-3.584 -8,-8s3.592,-8 8,-8c4.408,0 8,3.584 8,8zm-120.952,-88.104l13.432,43.28l-68.144,35.336c-2.856,-2.664 -6.352,-4.6 -10.24,-5.632l-11.088,-85.024l54.816,-2.744a23.986,23.986 0 0 0 21.224,14.784zm-7.048,-23.896c0,-4.416 3.592,-8 8,-8s8,3.584 8,8s-3.592,8 -8,8s-8,-3.584 -8,-8zm25.288,82.712l20.288,65.384l-85.624,-28.544c-0.016,-0.96 -0.16,-1.888 -0.288,-2.816l65.624,-34.024zm-0.056,-54.16l23.824,23.816l-14.152,7.336l-9.672,-31.152zm4.368,-18.272c1.496,-3.128 2.4,-6.584 2.4,-10.28c0,-3.408 -0.736,-6.64 -2.016,-9.576l37.984,-35.456l61.232,45.92c-0.712,2.272 -1.2,4.624 -1.2,7.112c0,1.12 0.184,2.184 0.328,3.264l-64.376,33.376l-34.352,-34.36zm114.4,-2.28c0,-4.416 3.592,-8 8,-8c4.408,0 8,3.584 8,8s-3.592,8 -8,8c-4.408,0 -8,-3.584 -8,-8zm69.824,61.936l57.32,47.768l-124.2,-11.288l66.88,-36.48zm-85.824,-189.936c4.408,0 8,3.584 8,8s-3.592,8 -8,8c-4.408,0 -8,-3.584 -8,-8s3.592,-8 8,-8zm-10.992,29.208c3.304,1.72 7.008,2.792 10.992,2.792c6.728,0 12.792,-2.8 17.16,-7.272l63.056,29.104c-0.064,0.728 -0.216,1.424 -0.216,2.168c0,3.256 0.664,6.352 1.84,9.184l-46.464,41.816c-3.4,-1.856 -7.24,-3 -11.376,-3c-4.912,0 -9.48,1.496 -13.288,4.04l-58.864,-44.152l37.16,-34.68zm-11.536,-13.208c0.192,0.52 0.328,1.064 0.544,1.568l-39.176,36.56l-50.84,-38.128l89.472,0zm-113.472,-16c4.408,0 8,3.584 8,8s-3.592,8 -8,8s-8,-3.584 -8,-8s3.592,-8 8,-8zm-56,48c0,-0.992 -0.176,-1.944 -0.296,-2.904l39.68,-19.84c4.32,4.152 10.16,6.744 16.616,6.744c4.912,0 9.48,-1.496 13.288,-4.04l49.672,37.256l-35.968,33.568c-3.304,-1.72 -7.008,-2.784 -10.992,-2.784c-10.832,0 -19.904,7.256 -22.88,17.128l-56.192,2.808l-6.08,-46.648c7.768,-3.976 13.152,-11.976 13.152,-21.288zm-24,-8c4.408,0 8,3.584 8,8s-3.592,8 -8,8s-8,-3.584 -8,-8s3.592,-8 8,-8zm-7.824,30.584c0.928,0.32 1.84,0.664 2.808,0.872l5.904,45.288l-42.712,2.136c-0.504,-1.224 -1.152,-2.368 -1.848,-3.488l35.848,-44.808zm-56.176,49.416c4.408,0 8,3.584 8,8s-3.592,8 -8,8s-8,-3.584 -8,-8s3.592,-8 8,-8zm0,112c-4.408,0 -8,-3.584 -8,-8s3.592,-8 8,-8s8,3.584 8,8s-3.592,8 -8,8zm67.28,-3.896l-43.664,-7.936c-1.416,-8.712 -7.496,-15.8 -15.616,-18.696l0,-50.952a23.963,23.963 0 0 0 14.88,-15.656l44.096,-2.208l11.152,85.52c-4.592,2.088 -8.344,5.584 -10.848,9.928zm20.72,19.896c-4.408,0 -8,-3.584 -8,-8s3.592,-8 8,-8s8,3.584 8,8s-3.592,8 -8,8zm32,80c-4.408,0 -8,-3.584 -8,-8s3.592,-8 8,-8s8,3.584 8,8s-3.592,8 -8,8zm92.512,10.104l-68.656,-19.616c-0.808,-12.52 -11.136,-22.488 -23.856,-22.488c-0.32,0 -0.624,0.08 -0.944,0.096l-15.264,-38.168a24.663,24.663 0 0 0 3.04,-3.224l96.592,32.2l14.264,45.952c-1.976,1.488 -3.736,3.24 -5.176,5.248zm19.488,125.896c-4.408,0 -8,-3.584 -8,-8s3.592,-8 8,-8c4.408,0 8,3.584 8,8s-3.592,8 -8,8zm0,-104c-4.408,0 -8,-3.584 -8,-8s3.592,-8 8,-8c4.408,0 8,3.584 8,8s-3.592,8 -8,8zm0.272,-34.112l-10.168,-32.752l18.976,6.328l-8.808,26.424zm13.872,-41.608l-29.872,-9.96l-24.544,-79.088l21.2,-10.992l37.48,37.48c-1.504,3.128 -2.408,6.584 -2.408,10.28c0,7.664 3.68,14.432 9.296,18.824l-11.152,33.456zm105.856,179.72c-4.408,0 -8,-3.584 -8,-8s3.592,-8 8,-8c4.408,0 8,3.584 8,8s-3.592,8 -8,8zm0,-128c-4.408,0 -8,-3.584 -8,-8s3.592,-8 8,-8c4.408,0 8,3.584 8,8s-3.592,8 -8,8zm12.176,-28.576c-3.584,-2.12 -7.712,-3.424 -12.176,-3.424c-7.664,0 -14.432,3.68 -18.824,9.296l-71.856,-23.952l11.128,-33.392c9.456,-0.176 17.544,-5.84 21.288,-13.944l131.088,11.912c0.208,0.8 0.448,1.584 0.736,2.352l-61.384,51.152zm16.76,-125.736l51.128,-27.888a23.752,23.752 0 0 0 7.944,4.72l0,66.952a24.07,24.07 0 0 0 -4.184,1.96l-54.888,-45.744zm67.064,74.312c-4.408,0 -8,-3.584 -8,-8s3.592,-8 8,-8c4.408,0 8,3.584 8,8s-3.592,8 -8,8zm0,-112c-4.408,0 -8,-3.584 -8,-8s3.592,-8 8,-8c4.408,0 8,3.584 8,8s-3.592,8 -8,8z" fill="#ffffff" id="svg_1"/>
 </g>

</svg>