<svg xmlns="http://www.w3.org/2000/svg" viewBox="0.0039959 0 496 496">
	<path d="M47.045 5.962c-7.88-6.2-14.67-7.337-26.9-4.515-3.322.766-7.081 1.935-9.79 4.8a19 19 0 00-4 6.542 26.573 26.573 0 00-.906 3.271l-.079.346a13.554 13.554 0 01-.884 2.345 6.014 6.014 0 00-.822 3 3.819 3.819 0 001.455 2.228c.489.449.811.765.814 1.053a1.82 1.82 0 01-.193.463c-.16.284-.275.59-.341.91a6.088 6.088 0 01-1.408 3.251C.85 33.04-.047 34.207.063 35.415a2.9 2.9 0 001.458 1.969c.33.23.678.433 1.041.606.43.22 1.151.588 1.2.851.065.339.027.69-.111 1.006-.147.314-.3.584-.433.82-.39.69-.978 1.733-.056 2.511.216.191.586.482.923.74-.25.44-.363.945-.321 1.449.053.391.265.743.587.972.223.159.461.3.7.433.586.335.814.491.893.8.072.374.043.76-.084 1.12a5.676 5.676 0 00.161 3.567 3.693 3.693 0 004.35 2.645 81.045 81.045 0 008.413-2.523c1.38.823 2.692 2.823 3.638 5.574A3.012 3.012 0 0025.264 60H45.43a3 3 0 002.684-4.336 27.422 27.422 0 01-2.3-8.778 16.945 16.945 0 011.3-8.782 21.831 21.831 0 012.643-4.192c1.978-2.673 4.22-5.7 4.293-10.855a30.034 30.034 0 00-1.043-8.494 16.58 16.58 0 00-5.962-8.601zm1.106 26.76a23.666 23.666 0 00-2.868 4.584 18.949 18.949 0 00-1.456 9.82 29.32 29.32 0 002.5 9.44A1 1 0 0145.43 58H25.264a1.013 1.013 0 01-.952-.692 14.751 14.751 0 00-3.283-5.7l.747-.262c.739-.26 1.3-.456 1.576-.544 4.278-1.346 6.418-3.3 6.359-5.792a.973.973 0 00-1.023-.976 1 1 0 00-.977 1.023c.024 1.031-.816 2.534-4.962 3.838-.292.092-.87.295-1.636.564-.717.252-1.6.564-2.575.9h-.008a82.792 82.792 0 01-8.566 2.594 1.763 1.763 0 01-2.055-1.342 3.685 3.685 0 01-.1-2.451 4.021 4.021 0 00.077-2.073 3.306 3.306 0 00-1.839-2.047c-.072-.041-.144-.081-.215-.123a3.61 3.61 0 01.383-.622 1 1 0 00-.192-1.418c-.24-.178-.81-.607-1.22-.935.051-.094.108-.2.161-.29.153-.271.329-.585.5-.943.319-.7.413-1.48.269-2.235-.233-1.227-1.4-1.824-2.255-2.261a5.971 5.971 0 01-.756-.427 5.389 5.389 0 01-.661-.542c.017-.578 2.217-2.951 3.4-4.226a8.009 8.009 0 001.914-4.281c.042-.115.093-.227.152-.335.25-.423.39-.9.409-1.391A3.491 3.491 0 006.47 22.5c-.4-.37-.784-.72-.827-1.028.121-.666.347-1.31.668-1.906.419-.87.753-1.776 1-2.709l.081-.349c.214-1.026.492-2.038.833-3.03.783-2.175 2-4.168 3.579-5.858 2.337-2.473 5.6-3.493 8.785-4.227C33.636.385 39.318 2.429 45.811 7.536a14.436 14.436 0 015.274 7.572 28.015 28.015 0 01.967 7.92c-.063 4.509-1.927 7.028-3.901 9.694z M40.134 16.78a4.171 4.171 0 10-.995-1.789 12.246 12.246 0 00-2.961 3.838 9.847 9.847 0 00-2.072-1.19c-.847-1.612-.694-3.817-.306-5.659.068 0 .132.02.2.02a4.032 4.032 0 10-2.115-.619 13.21 13.21 0 00-.2 5.351 36.553 36.553 0 00-2.8-.748 63.353 63.353 0 00-2.618-.532 6.372 6.372 0 01-1.835-2.73 4.01 4.01 0 10-2.013.22c.2.703.486 1.379.85 2.013-1.978-.29-3.844-.5-5.345-.643a4.016 4.016 0 10-.167 1.993c2.13.2 5 .54 7.864 1.06l.16.03a14.131 14.131 0 00-2.659 2.787A3.939 3.939 0 0022 20a4.015 4.015 0 102.857 1.209 10.331 10.331 0 013.128-2.879c.238-.129.485-.239.739-.33a27.9 27.9 0 014.148 1.269c.03.017.063.033.095.047l.017.008.016.008a7.085 7.085 0 012.294 1.373c.123.123.23.262.316.413.46.775.359 1.924-.32 3.621-.371.936-.859 1.911-1.376 2.943-1.764 3.521-3.762 7.512-.539 10.1 3.761 3.009 3.894 13.4 3.628 17.148a1 1 0 00.926 1.07H38a1 1 0 001-.929c.043-.593.977-14.573-4.371-18.851-1.825-1.463-.759-3.975 1.076-7.64.446-.889.89-1.8 1.266-2.69a2.922 2.922 0 012.781.8 4.064 4.064 0 101.556-1.3 5.677 5.677 0 00-3.609-1.6 5.178 5.178 0 00-.133-3.193 10.878 10.878 0 012.568-3.817zM43 12a2 2 0 110 4 2 2 0 010-4zm-9-6a2 2 0 110 4 2 2 0 010-4zM21 9a2 2 0 114 0 2 2 0 01-4 0zm-7 8a2 2 0 110-4 2 2 0 010 4zm8 9a2 2 0 110-4 2 2 0 010 4zm23 3a2 2 0 11-4 0 2 2 0 014 0z" fill="#00000"/>
</svg>