<?xml version="1.0" encoding="UTF-8" standalone="no" ?>
<!DOCTYPE svg PUBLIC "-//W3C//DTD SVG 1.1//EN" "http://www.w3.org/Graphics/SVG/1.1/DTD/svg11.dtd">
<svg xmlns="http://www.w3.org/2000/svg" xmlns:xlink="http://www.w3.org/1999/xlink" version="1.1" width="1080" height="1080" viewBox="0 0 1080 1080" xml:space="preserve">
<desc>Created with Fabric.js 5.2.4</desc>
<defs>
</defs>
<g transform="matrix(1 0 0 1 540 540)" id="3dbb878b-c9aa-4f38-a6a6-1eba1e46568a"  >
<rect style="stroke: none; stroke-width: 1; stroke-dasharray: none; stroke-linecap: butt; stroke-dashoffset: 0; stroke-linejoin: miter; stroke-miterlimit: 4; fill: rgb(255,255,255); fill-rule: nonzero; opacity: 1; visibility: hidden;" vector-effect="non-scaling-stroke"  x="-540" y="-540" rx="0" ry="0" width="1080" height="1080" />
</g>
<g transform="matrix(1 0 0 1 540 540)" id="9d5ca9bb-0c4d-4004-af3f-ff8798b1705a"  >
</g>
<g transform="matrix(17.22 0 0 17.22 540 540)" id="7ab8883a-058c-4dd7-a158-bb81472107df"  >
<path style="stroke: rgb(0,0,0); stroke-width: 0; stroke-dasharray: none; stroke-linecap: butt; stroke-dashoffset: 0; stroke-linejoin: miter; stroke-miterlimit: 4; fill: rgb(255,255,255); fill-rule: nonzero; opacity: 1;" vector-effect="non-scaling-stroke"  transform=" translate(-27.06, -29.99)" d="M 47.045 5.962 C 39.165 -0.23800000000000043 32.375 -1.375 20.145000000000003 1.447 C 16.823000000000004 2.213 13.064000000000004 3.382 10.355000000000004 6.247 C 8.590916288939612 8.133156760508676 7.229870024865935 10.359147925401167 6.355 12.789000000000003 C 5.983603611001786 13.858912428319373 5.6809864680992845 14.951473879129594 5.448999999999998 16.06 L 5.3700000000000045 16.406 C 5.148384474095941 17.213289216866354 4.852453185135909 17.998310565974133 4.486000000000004 18.750999999999998 C 3.9536550273187063 19.661610812737543 3.6701726648794137 20.69621797492474 3.664000000000004 21.751 C 3.866209610419277 22.644084188371476 4.382577972665613 23.434784333446967 5.119000000000003 23.979 C 5.608000000000004 24.428 5.930000000000004 24.744 5.933000000000004 25.032 C 5.890345103110038 25.194501612899614 5.825395035001643 25.3503144705897 5.740000000000005 25.495 C 5.5800000000000045 25.779 5.465000000000004 26.085 5.3990000000000045 26.405 C 5.262326854695169 27.60428469010362 4.7722380188646785 28.7358747506753 3.991000000000006 29.656000000000002 C 0.85 33.04 -0.047 34.207 0.063 35.415 C 0.2342764547525949 36.25448525588174 0.7679998060250568 36.97526802587864 1.5209999999999988 37.384 C 1.851 37.614 2.199 37.817 2.562 37.99 C 2.992 38.21 3.713 38.578 3.7619999999999996 38.841 C 3.8269999999999995 39.18 3.7889999999999997 39.531 3.6509999999999994 39.847 C 3.5039999999999996 40.161 3.3509999999999995 40.431000000000004 3.2179999999999995 40.667 C 2.8279999999999994 41.357 2.2399999999999993 42.4 3.1619999999999995 43.178000000000004 C 3.3779999999999997 43.36900000000001 3.7479999999999993 43.660000000000004 4.084999999999999 43.918000000000006 C 3.834999999999999 44.358000000000004 3.721999999999999 44.86300000000001 3.763999999999999 45.367000000000004 C 3.816999999999999 45.758 4.028999999999999 46.11000000000001 4.350999999999999 46.339000000000006 C 4.573999999999999 46.498000000000005 4.811999999999999 46.639 5.050999999999999 46.772000000000006 C 5.637 47.107000000000006 5.864999999999999 47.263000000000005 5.943999999999999 47.572 C 6.015999999999999 47.946000000000005 5.986999999999999 48.332 5.859999999999999 48.692 C 5.528546054712228 49.86736019195737 5.585007497893862 51.118279246795204 6.020999999999999 52.259 C 6.534544079453585 54.15894111256232 8.447847909488328 55.322317809215626 10.370999999999999 54.904 C 13.218876533345412 54.21568837933394 16.027333007778118 53.37345187808662 18.784000000000024 52.38099999999999 C 20.163999999999998 53.204 21.476 55.204 22.421999999999997 57.955 C 22.835164595525896 59.17381984799961 23.9770631515116 59.99548858374583 25.264 60 L 45.43 60 C 46.468238704380624 59.99927524027269 47.432297559580064 59.46177931764444 47.978751389296264 58.57898356293154 C 48.525205219012456 57.696187808218646 48.57636266863659 56.59360254689941 48.114 55.664 C 46.86516697915689 52.88603500232929 46.08786003094805 49.91942613651312 45.81399999999999 46.885999999999996 C 45.459172556576206 43.89515497501149 45.9079069049376 40.86378186169632 47.114 38.104 C 47.833032922507186 36.61087850830724 48.719744395737514 35.20448634191241 49.757 33.912 C 51.735 31.238999999999997 53.977 28.212 54.05 23.057 C 54.109559295350856 20.19039596794851 53.758328018244875 17.33003310338649 53.007 14.562999999999988 C 52.00033683702637 11.127533433039744 49.90877177254278 8.110164912472246 47.045 5.961999999999993 z M 48.151 32.722 C 47.02300595754764 34.135408484412984 46.06072651711678 35.67344507957863 45.283 37.306000000000004 C 43.93360718750032 40.39177633388698 43.43102567493564 43.78144010681636 43.827 47.126000000000005 C 44.126769424227824 50.3902945858885 44.971821181326064 53.581210020691486 46.326999999999984 56.56599999999998 C 46.47598029854741 56.87525197474989 46.45593010833213 57.239304389718306 46.27388976944329 57.53032539971452 C 46.09184943055444 57.821346409710735 45.77326391095295 57.9986581060882 45.43 58 L 25.264 58 C 24.83147158392634 57.9962389111588 24.449048673134847 57.71825923230615 24.311999999999998 57.308 C 23.660645388471803 55.185113407706545 22.538413203470878 53.23667495065347 21.02899999999999 51.60799999999999 L 21.775999999999996 51.346 C 22.514999999999997 51.086 23.075999999999997 50.88999999999999 23.351999999999997 50.802 C 27.629999999999995 49.456 29.769999999999996 47.502 29.711 45.01 C 29.712178237401087 44.74252260725979 29.60319264906269 44.48635614566732 29.409662279592265 44.30171720079622 C 29.216131910121838 44.117078255925115 28.95512645744711 44.0202522873819 28.688 44.034 C 28.422760395748043 44.040030318332114 28.170788408291212 44.15121570726051 27.987550506428082 44.343080982189875 C 27.804312604564952 44.53494625711923 27.704829370760997 44.791763622898905 27.711 45.057 C 27.735 46.088 26.895 47.591 22.749 48.895 C 22.456999999999997 48.987 21.878999999999998 49.190000000000005 21.113 49.459 C 20.396 49.711000000000006 19.512999999999998 50.023 18.538 50.359 L 18.53 50.359 C 15.723526440097528 51.377483625146944 12.86401590104073 52.24341525464883 9.964000000000002 52.95299999999998 C 9.028956644090046 53.13419896514925 8.119044774235501 52.539988877876844 7.909000000000001 51.611000000000004 C 7.596733777497679 50.82939524977252 7.561444102272704 49.96444531000839 7.809000000000001 49.160000000000004 C 8.01553589438022 48.487628175200385 8.04208611220861 47.77284114197634 7.886000000000001 47.087 C 7.599587816800271 46.16984961846668 6.928337060203558 45.422677079720906 6.046999999999999 45.040000000000006 C 5.9750000000000005 44.99900000000001 5.9030000000000005 44.959 5.832000000000001 44.91700000000001 C 5.938308041062643 44.69725045622253 6.066631454910895 44.488850551748335 6.215 44.29500000000001 C 6.3807146764984894 44.08267075650134 6.453770884244472 43.81247106812183 6.417631240429719 43.54556474036495 C 6.381491596614966 43.27865841260808 6.239212144430059 43.03761559778762 6.023 42.87700000000001 C 5.783 42.69900000000001 5.213000000000001 42.27000000000001 4.803000000000001 41.94200000000001 C 4.854000000000001 41.848000000000006 4.9110000000000005 41.742000000000004 4.964 41.65200000000001 C 5.117 41.38100000000001 5.293 41.06700000000001 5.464 40.70900000000001 C 5.783 40.00900000000001 5.877000000000001 39.22900000000001 5.7330000000000005 38.47400000000001 C 5.500000000000001 37.247000000000014 4.333 36.65000000000001 3.4780000000000006 36.21300000000001 C 3.2159717236589955 36.08920143126534 2.9633039025430374 35.94649090267207 2.7220000000000013 35.78600000000001 C 2.4876629950166227 35.62312049164389 2.2666345203032305 35.441883830078595 2.061 35.24400000000001 C 2.0780000000000003 34.666000000000004 4.2780000000000005 32.293000000000006 5.461 31.018000000000008 C 6.511832112580781 29.813923455416322 7.178411028192539 28.323001648867773 7.375000000000001 26.737000000000013 C 7.417 26.62200000000001 7.468 26.51000000000001 7.527 26.402000000000008 C 7.777 25.97900000000001 7.917 25.50200000000001 7.936 25.01100000000001 C 7.8357345589418195 24.000639159470165 7.300565577064147 23.08398887741366 6.469999999999999 22.5 C 6.069999999999999 22.13 5.686 21.78 5.643 21.472 C 5.763999999999999 20.806 5.99 20.162000000000003 6.311 19.566000000000003 C 6.7299999999999995 18.696 7.064 17.790000000000003 7.311 16.857000000000003 L 7.392 16.508000000000003 C 7.606000000000001 15.482000000000003 7.884 14.470000000000002 8.225 13.478000000000003 C 9.008 11.303000000000004 10.225 9.310000000000002 11.804 7.620000000000004 C 14.141 5.147000000000004 17.404 4.127000000000004 20.589 3.3930000000000033 C 33.636 0.385 39.318 2.429 45.811 7.536 C 48.35006783341146 9.415025105035358 50.202757758016425 12.074973551965353 51.085 15.108000000000006 C 51.78355064220156 17.688342572014104 52.10918575495566 20.35538506737338 52.052 23.027999999999988 C 51.989 27.537 50.125 30.055999999999997 48.150999999999996 32.722 z M 40.134 16.78 C 41.576719050030974 18.311675182516648 43.93438128743283 18.528909050786876 45.632689618809934 17.28664662535706 C 47.33099795018705 16.044384199927247 47.8380807008065 13.731673914738337 46.8153402175579 11.892796804656182 C 45.792599734309306 10.053919694574027 43.56033515462991 9.264770389623992 41.60911098081754 10.052292672222976 C 39.65788680700517 10.839814954821959 38.59878222293418 12.957374696409946 39.139 14.990999999999998 C 37.90612510924617 16.060254993433414 36.89940546429459 17.365148609551 36.178 18.829 C 35.53819863908516 18.34969685993245 34.84241083391014 17.950088998852202 34.106 17.638999999999996 C 33.259 16.027 33.412 13.822 33.800000000000004 11.98 C 33.868 11.98 33.932 12 34.00000000000001 12 C 36.01181973945875 12.015933522817368 37.727518678733716 10.54636956334269 38.02084768833543 8.555985019252956 C 38.314176697937135 6.565600475163223 37.095360146139754 4.6635680636936145 35.164474928164346 4.098453193751876 C 33.23358971018894 3.5333383238101383 31.1815983103434 4.478098809952577 30.355504841582757 6.312558436680902 C 29.529411372822114 8.147018063409227 30.182048185834308 10.309726150858257 31.88500000000001 11.381000000000002 C 31.453732725926432 13.132309569800002 31.38566792162104 14.953383408990785 31.685000000000006 16.732000000000003 C 30.761922040372603 16.4457494047491 29.827854707390156 16.196219988652363 28.885 15.984000000000002 C 28.016169704295546 15.788284772499827 27.14330902361039 15.61091201385794 26.267000000000017 15.452000000000018 C 25.42694397612668 14.718283850781958 24.794193558326903 13.776916744191558 24.432000000000006 12.722 C 26.317081610524635 12.003585456391658 27.3749860014336 9.996594503133718 26.902350089970184 8.035404193652951 C 26.429714178506764 6.0742138841721856 24.57369813472024 4.769461481618083 22.568301153076526 4.988630550650184 C 20.562904171432812 5.207799619682285 19.032527728157525 6.882649561805984 18.99466480481916 8.899632093669458 C 18.956801881480793 10.916614625532933 20.423241498130295 12.647720987800877 22.419000000000004 12.942 C 22.619000000000003 13.645 22.905000000000005 14.321 23.269000000000005 14.955 C 21.291000000000004 14.665000000000001 19.425000000000004 14.455 17.924000000000007 14.312 C 17.58561031786314 12.317387197308516 15.816352581818931 10.88589915883772 13.7950426343605 10.971303526074196 C 11.77373268690207 11.056707893310673 10.131531627562094 12.632336853929228 9.96260034984455 14.648384976630219 C 9.793669072127003 16.66443309933121 11.150756958245006 18.491382307762855 13.129667481474184 18.911978254831162 C 15.108578004703363 19.33257420189947 17.091389433995687 18.215484332325413 17.757000000000005 16.305 C 19.887000000000004 16.505 22.757000000000005 16.845 25.621000000000006 17.365 L 25.781000000000006 17.395 C 24.77161001774878 18.19827608941833 23.87696692190214 19.135985870585902 23.122000000000003 20.182000000000002 C 22.758766219098636 20.067406571639825 22.38083224884628 20.006101774326165 21.999999999999996 20 C 20.087545741367357 19.992991354848733 18.435598849176866 21.335891980734026 18.051916128096245 23.20947624145281 C 17.66823340701562 25.08306050217159 18.659326069184143 26.967217066955058 20.420586073581696 27.71253150353771 C 22.18184607797925 28.457845940120365 24.224343567581062 27.85741723445147 25.302069513045048 26.277532049084275 C 26.379795458509033 24.69764686371708 26.193570640916953 22.57688498577469 24.857 21.209 C 25.688803690882427 20.042860643368765 26.754020211744223 19.06243917164207 27.984999999999996 18.330000000000002 C 28.223 18.200999999999997 28.47 18.090999999999998 28.724 18 C 30.137504347190834 18.31471058465012 31.524361532359443 18.738992592359615 32.87199999999998 19.268999999999995 C 32.902 19.285999999999998 32.935 19.302 32.967 19.316 L 32.984 19.323999999999998 L 33 19.331999999999997 C 33.84486941943586 19.639940511572515 34.62339393213385 20.105901346766217 35.294 20.705 C 35.416999999999994 20.828 35.523999999999994 20.967 35.61 21.118 C 36.07 21.892999999999997 35.969 23.041999999999998 35.29 24.738999999999997 C 34.919 25.674999999999997 34.431 26.65 33.914 27.682 C 32.15 31.203 30.152 35.193999999999996 33.375 37.782 C 37.136 40.791 37.269 51.181999999999995 37.003 54.92999999999999 C 36.9837436848928 55.19472288836588 37.0705192388486 55.45624151957316 37.24420956410498 55.65694200340073 C 37.41789988936136 55.8576424872283 37.66425442193936 55.981058189272815 37.929 55.99999999999999 L 38 55.99999999999999 C 38.52570523992254 56.001326599246774 38.96267648293622 55.595380314487066 39 55.07099999999999 C 39.043 54.477999999999994 39.977 40.49799999999999 34.629 36.21999999999999 C 32.803999999999995 34.75699999999999 33.87 32.24499999999999 35.705 28.57999999999999 C 36.150999999999996 27.690999999999992 36.595 26.77999999999999 36.971 25.88999999999999 C 37.974233413999805 25.646693785796764 39.031399153866026 25.950804750159573 39.751999999999995 26.68999999999999 C 38.5582101796207 28.352764916521846 38.78737887436515 30.643880250161512 40.286858511978764 32.03725102609996 C 41.786338149592375 33.43062180203841 44.08808592036371 33.491325693502375 45.658924661755606 32.17892828745516 C 47.22976340314751 30.866530881407936 47.5793765015281 28.590679734225766 46.4748892583889 26.867302459047774 C 45.370402015249695 25.143925183869786 43.156565569320406 24.51095128759535 41.30799999999999 25.38999999999999 C 40.33514888681572 24.442090168479705 39.05467234632412 23.874408687519168 37.69899999999999 23.78999999999999 C 37.99243465546277 22.738265741067206 37.94588350502717 21.62068812196278 37.56599999999999 20.596999999999987 C 38.14009135205528 19.15613988464915 39.015669075979574 17.8547067957788 40.133999999999986 16.779999999999987 z M 43 12 C 44.10456949966159 12 45 12.895430500338414 45 14 C 45 15.104569499661586 44.10456949966159 16 43 16 C 41.89543050033841 16 41 15.104569499661586 41 14 C 41 12.895430500338414 41.89543050033841 12 43 12 z M 34 6 C 35.10456949966159 6 36 6.895430500338413 36 8 C 36 9.104569499661586 35.10456949966159 10 34 10 C 32.89543050033841 10 32 9.104569499661586 32 8 C 32 6.8954305003384135 32.89543050033841 6 34 6 z M 21 9 C 21 7.8954305003384135 21.895430500338414 7 23 7 C 24.104569499661586 7 25 7.895430500338413 25 9 C 25 10.104569499661586 24.104569499661586 11 23 11 C 21.895430500338414 11 21 10.104569499661586 21 9 z M 14 17 C 12.895430500338414 17 12 16.104569499661586 12 15 C 12 13.895430500338414 12.895430500338414 13 14 13 C 15.104569499661586 13 16 13.895430500338414 16 15 C 16 16.104569499661586 15.104569499661588 17 14 17 z M 22 26 C 20.895430500338414 26 20 25.104569499661586 20 24 C 20 22.895430500338414 20.895430500338414 22 22 22 C 23.104569499661586 22 24 22.895430500338414 24 24 C 24 25.104569499661586 23.104569499661586 26 22 26 z M 45 29 C 45 30.104569499661586 44.10456949966159 31 43 31 C 41.89543050033841 31 41 30.104569499661586 41 29 C 41 27.895430500338414 41.89543050033841 27 43 27 C 44.10456949966159 27 45 27.895430500338414 45 29 z" stroke-linecap="round" />
</g>
</svg>